<?xml version="1.0" standalone="no"?><!DOCTYPE svg PUBLIC "-//W3C//DTD SVG 1.1//EN" "http://www.w3.org/Graphics/SVG/1.1/DTD/svg11.dtd"><svg t="1723698950374" class="icon" viewBox="0 0 1024 1024" version="1.1" xmlns="http://www.w3.org/2000/svg" p-id="1692" data-spm-anchor-id="a313x.collections_detail.0.i2.36e63a81duosiX" xmlns:xlink="http://www.w3.org/1999/xlink" width="200" height="200"><path d="M798.72 615.0656V552.96c0-52.2752-40.3456-94.6176-90.112-94.6176h-25.088V351.4368H322.0992v106.752H296.96c-49.7664 0-90.112 42.3424-90.112 94.6176v62.2592z" fill="#FFE8D2" p-id="1693" data-spm-anchor-id="a313x.collections_detail.0.i3.36e63a81duosiX" class="selected"></path><path d="M798.72 552.96c0-52.2752-40.3456-94.6176-90.112-94.6176h-25.088V351.4368h-78.1824v77.8752a40.2432 40.2432 0 0 0 38.7584 40.96h11.6224c16.1792 0 57.856 3.9936 61.696 34.7136a824.32 824.32 0 0 1 3.4816 82.4832l0.5632 27.2896H798.72z" fill="#E8AD80" p-id="1694"></path><path d="M206.9504 615.0656v251.5456c0 52.2752 40.3456 94.6176 90.112 94.6176h411.4944c49.7664 0 90.112-42.3424 90.112-94.6176v-251.5456z" fill="#FFC31A" p-id="1695" data-spm-anchor-id="a313x.collections_detail.0.i1.36e63a81duosiX" class=""></path><path d="M721.4592 808.96c0 38.8608-13.8752 133.4784-111.5136 134.0928a380.5696 380.5696 0 0 0-43.8784 17.9712h142.4896c49.7664 0 90.112-42.3424 90.112-94.6176v-251.3408h-77.2096z" fill="#F48806" p-id="1696"></path><path d="M583.2704 488.2944c0-26.7776-20.48-83.4048-46.08-83.4048s-46.08 56.6272-46.08 83.4048a46.08 46.08 0 1 0 92.16 0z" fill="#FFC31A" p-id="1697"></path><path d="M529.0496 535.9616a46.4896 46.4896 0 0 0 8.0384 0.768 47.3088 47.3088 0 0 0 46.08-48.4352c0-26.7776-20.48-83.4048-46.08-83.4048a17.0496 17.0496 0 0 0-5.12 0.768c10.752 27.3408 37.5808 108.1344-2.9184 130.304z" fill="#F48806" p-id="1698"></path><path d="M501.76 687.7696c0-29.4912-22.7328-91.8528-50.8416-91.8528s-50.8416 62.3616-50.8416 91.8528a50.8928 50.8928 0 1 0 101.6832 0z" fill="#FFC31A" p-id="1699"></path><path d="M442.1632 740.2496a46.8992 46.8992 0 0 0 8.9088 0.8704 52.1216 52.1216 0 0 0 50.688-53.3504c0-29.4912-22.7328-91.8528-50.8416-91.8528a20.48 20.48 0 0 0-5.5296 0.8192c11.776 30.1568 41.3696 119.1424-3.2256 143.5136z" fill="#F48806" p-id="1700"></path><path d="M269.6704 809.3696a20.48 20.48 0 0 1-20.48-20.48V778.24a20.48 20.48 0 0 1 40.96 0v10.752a20.48 20.48 0 0 1-20.48 20.3776zM269.6704 737.28a20.48 20.48 0 0 1-20.48-20.48v-171.6224a20.48 20.48 0 0 1 40.96 0V716.8a20.48 20.48 0 0 1-20.48 20.48z" fill="#FFFFFF" p-id="1701"></path><path d="M666.624 415.232h-4.5568V349.44h46.08a20.48 20.48 0 0 0 0-40.96h-164.7616a20.48 20.48 0 0 0 0 40.96h77.7216V435.712a20.48 20.48 0 0 0 20.48 20.48h25.0368c38.4 0 69.632 33.28 69.632 74.1376v41.7792h-206.2336a20.48 20.48 0 0 0 0 40.96h206.2336v231.0656c0 40.96-31.232 74.1376-69.632 74.1376H255.1296c-38.4 0-69.632-33.28-69.632-74.1376v-105.216a20.48 20.48 0 0 0-40.96 0v105.216c0 63.488 49.6128 115.0976 110.592 115.0976h411.4944c60.9792 0 110.592-51.6096 110.592-115.0976v-313.8048c0-63.4368-49.6128-115.0976-110.592-115.0976zM165.0176 676.8128a20.48 20.48 0 0 0 20.48-20.48v-43.264h30.72a20.48 20.48 0 1 0 0-40.96h-30.72v-41.7792c0-40.96 31.232-74.1376 69.632-74.1376h25.088a20.48 20.48 0 0 0 20.48-20.48V349.44h160.768a20.48 20.48 0 0 0 0-40.96H213.5552a20.48 20.48 0 0 0 0 40.96h46.08V415.232h-4.608c-60.9792 0-110.592 51.6608-110.592 115.0976v126.0032a20.48 20.48 0 0 0 20.5824 20.48zM890.0096 167.5776H502.1184v-37.12a20.48 20.48 0 0 0-40.96 0V245.76a20.48 20.48 0 0 0 40.96 0v-37.2224h387.8912a20.48 20.48 0 0 0 0-40.96zM267.8784 208.5376h35.328v43.6224a20.48 20.48 0 0 0 40.96 0v-43.6224h40.0896v67.1232a20.48 20.48 0 0 0 40.96 0V100.4544a20.48 20.48 0 1 0-40.96 0v67.1232h-40.0896v-43.6224a20.48 20.48 0 0 0-40.96 0v43.6224h-35.328a20.48 20.48 0 0 0 0 40.96z" fill="#293E40" p-id="1702"></path><path d="M566.8352 467.7632c0-31.0272-22.6816-103.8336-66.56-103.8336s-66.56 72.8064-66.56 103.8336a66.56 66.56 0 1 0 133.12 0z m-92.16 0c0-21.8624 16.2304-58.1632 25.6-62.72 9.4208 4.5568 25.6 40.96 25.6 62.72a25.6 25.6 0 1 1-51.2 0zM409.9072 739.1232A72.704 72.704 0 0 0 481.28 665.2928c0-32.6144-25.0368-112.3328-71.3728-112.3328-14.336 0-26.624 7.68-36.7616 19.1488h-51.2a20.48 20.48 0 0 0 0 40.96h27.904a162.3552 162.3552 0 0 0-11.264 52.224 72.704 72.704 0 0 0 71.3216 73.8304zM409.6 593.92c10.24 2.1504 30.72 45.1584 30.72 71.3728a30.72 30.72 0 1 1-60.7744 0c0-26.2144 20.0704-69.2224 30.0544-71.3728z" fill="#293E40" p-id="1703"></path></svg>